<?xml version="1.0" encoding="UTF-8" standalone="no"?>
<svg
   width="38.0544911083921mm"
   height="40.74616649232141mm"
   viewBox="0 0 38.0544911083921 40.74616649232141"
   version="1.1"
   id="svg2"
   sodipodi:docname="logo.svg"
   inkscape:version="1.4.2 (f4327f4, 2025-05-13)"
   xmlns:inkscape="http://www.inkscape.org/namespaces/inkscape"
   xmlns:sodipodi="http://sodipodi.sourceforge.net/DTD/sodipodi-0.dtd"
   xmlns="http://www.w3.org/2000/svg"
   xmlns:svg="http://www.w3.org/2000/svg">
  <defs
     id="defs2" />
  <sodipodi:namedview
     id="namedview2"
     pagecolor="#ffffff"
     bordercolor="#000000"
     borderopacity="0.25"
     inkscape:showpageshadow="2"
     inkscape:pageopacity="0.0"
     inkscape:pagecheckerboard="0"
     inkscape:deskcolor="#d1d1d1"
     inkscape:document-units="mm"
     inkscape:zoom="1.8756543"
     inkscape:cx="59.179349"
     inkscape:cy="142.6169"
     inkscape:window-width="1920"
     inkscape:window-height="1094"
     inkscape:window-x="-11"
     inkscape:window-y="-11"
     inkscape:window-maximized="1"
     inkscape:current-layer="svg2" />
  <g
     id="Part__Part2DObjectPython"
     transform="translate(19.027246,20.373083) scale(1,-1)">
    <circle
       cx="0.0"
       cy="0.0"
       r="10.0"
       stroke="#f1f3f5"
       stroke-width="0.7 px"
       style="stroke-width:0.7;stroke-miterlimit:4;stroke-dasharray:none;stroke-linecap:square;fill:none"
       id="circle1" />
    <path
       id="Part__Part2DObjectPython_w0001"
       d="M 2e-15 10.0 A 10 10 0 0 1 -8.66025 15A 10 10 0 0 1 -17.3205 4.44089e-15A 10 10 0 0 1 -8.66025 -15A 10 10 0 0 1 8.66025 -15A 10 10 0 0 1 17.3205 8.88178e-16A 10 10 0 0 1 8.66025 15A 10 10 0 0 1 -8.66025 15A 10 10 0 0 1 -8.66025 5A 10 10 0 0 1 -17.3205 5.32907e-15A 10 10 0 0 1 -8.66025 -5A 10 10 0 0 1 -8.66025 -15A 10 10 0 0 1 -3.55271e-15 -10A 10 10 0 0 1 8.66025 -15A 10 10 0 0 1 8.66025 -5A 10 10 0 0 1 17.3205 -4.44089e-15A 10 10 0 0 1 8.66025 5A 10 10 0 0 1 8.66025 15A 10 10 0 0 1 5.32907e-15 10"
       stroke="#f1f3f5"
       stroke-width="0.7 px"
       style="stroke-width:0.7;stroke-miterlimit:4;stroke-dasharray:none;stroke-linecap:square;fill:none;fill-opacity:1;fill-rule: evenodd" />
    <title
       id="title1">b'Part__Part2DObjectPython'</title>
  </g>
  <path
     style="fill:#69a3e5;stroke-width:4.27456;fill-rule:nonzero;fill-opacity:1"
     d="M 67.670076,113.16068 C 57.307968,111.98995 47.463381,105.95719 41.667641,97.2264 l -0.90083,-1.357022 0.413656,-0.66931 0.413655,-0.669308 h -0.83648 -0.836481 l -0.865878,-1.865556 c -4.700894,-10.128203 -4.700894,-21.200947 0,-31.329149 l 0.865878,-1.865557 h 0.836481 0.83648 l -0.407739,-0.659736 -0.407739,-0.659736 0.427383,-0.70686 c 0.994599,-1.64499 3.204092,-4.371151 4.990843,-6.157903 4.961293,-4.961292 10.959937,-8.259162 17.819553,-9.796643 2.646136,-0.593092 6.669517,-1.015877 7.112515,-0.747397 0.355624,0.215526 1.088682,0.20452 1.607466,-0.02413 0.518345,-0.22846 4.591183,0.21602 7.069645,0.771531 6.86397,1.538457 12.883866,4.843423 17.828321,9.787876 1.781547,1.781549 3.976,4.497246 4.98306,6.16667 l 0.4264,0.70686 -0.40774,0.659736 -0.40774,0.659736 h 0.83517 0.83516 l 0.86086,1.837836 c 4.70114,10.036432 4.70114,21.348158 0,31.38459 l -0.86086,1.837836 h -0.83516 -0.83517 l 0.40774,0.659736 0.40774,0.659736 -0.4264,0.70686 c -1.01973,1.690425 -3.211258,4.394684 -5.020863,6.195544 -5.910708,5.88212 -13.532449,9.53384 -21.766609,10.42878 -2.889795,0.31408 -3.107484,0.29094 -3.447482,-0.36654 -0.160834,-0.31102 -0.372892,-0.56549 -0.47124,-0.56549 -0.09835,0 -0.310406,0.25447 -0.47124,0.56549 -0.271464,0.52495 -0.363011,0.56372 -1.277189,0.54083 -0.54162,-0.0136 -1.663349,-0.10132 -2.492731,-0.19503 z"
     id="path2"
     transform="scale(0.26458333)" />
  <path
     style="fill:#aecbeb;fill-opacity:1;fill-rule:nonzero;stroke-width:4.27456"
     d="m 135.90564,72.314399 c -1.695,-2.320162 -5.12302,-5.758686 -7.58644,-7.609675 -5.75311,-4.322831 -12.25165,-6.919188 -19.31837,-7.718249 -1.06429,-0.120346 -1.95698,-0.233402 -1.98375,-0.251235 -0.0268,-0.01784 0.24031,-0.660841 0.59349,-1.428902 2.67162,-5.8099 3.92929,-13.125897 3.33462,-19.397844 -0.41559,-4.383311 -1.65882,-9.180058 -3.29986,-12.731865 l -0.66261,-1.434142 1.26674,0.124711 c 2.124,0.209109 5.77601,1.000559 7.91234,1.714733 18.64773,6.233943 29.01274,26.248135 23.32059,45.030625 -0.59767,1.972134 -1.85012,5.146793 -2.12759,5.392931 -0.0713,0.06328 -0.72345,-0.697716 -1.44916,-1.691088 z"
     id="path4"
     transform="scale(0.26458333)" />
  <path
     style="fill:#aecbeb;fill-opacity:1;fill-rule:nonzero;stroke-width:4.27456"
     d="M 70.591764,34.729683 C 68.110248,31.237496 63.213971,26.794583 59.295108,24.479024 54.711959,21.770954 49.164168,19.853751 44.336938,19.309787 41.434903,18.982766 41.519367,19.101578 42.882214,17.263507 45.29386,14.01092 49.11054,10.514844 52.619059,8.3445627 58.645934,4.6164904 64.789087,2.874755 71.911236,2.874755 c 7.122149,0 13.265303,1.7417354 19.292177,5.4698077 3.503777,2.1673473 7.32522,5.6663853 9.728597,8.9078223 1.25607,1.694062 1.25411,1.871728 -0.0208,1.877076 -1.201229,0.005 -4.88688,0.713287 -7.228702,1.389093 -4.408492,1.272211 -8.736192,3.426804 -12.480582,6.213597 -2.52865,1.881969 -6.349815,5.715739 -7.971238,7.997532 -0.673873,0.948328 -1.267635,1.724232 -1.319472,1.724232 -0.05184,0 -0.645599,-0.775904 -1.319472,-1.724232 z"
     id="path5"
     transform="scale(0.26458333)" />
  <path
     style="fill:#aecbeb;fill-opacity:1;fill-rule:nonzero;stroke-width:4.27456"
     d="M 5.9200412,72.922248 C 4.3356811,69.427409 3.2560874,65.063006 2.8843075,60.649888 2.1599468,52.051551 5.0291454,42.69515 10.558117,35.62575 15.821766,28.895592 23.616881,24.104143 31.996082,22.448405 c 1.270608,-0.251073 2.880229,-0.512616 3.576933,-0.581207 l 1.266738,-0.124711 -0.635002,1.380999 c -1.400535,3.045874 -2.64468,7.359847 -3.143559,10.900048 -0.13879,0.984892 -0.252345,3.31753 -0.252345,5.183641 0,1.86611 0.113555,4.198749 0.252345,5.183641 0.499927,3.547629 1.742998,7.854205 3.150709,10.915522 0.353183,0.768061 0.620252,1.411066 0.593487,1.428902 -0.02676,0.01783 -0.919451,0.130889 -1.983749,0.251235 -10.643038,1.203451 -20.591536,6.861472 -26.8598548,15.276037 l -1.455228,1.953493 z"
     id="path6"
     transform="scale(0.26458333)" />
  <path
     style="fill:#aecbeb;fill-opacity:1;fill-rule:nonzero;stroke-width:4.27456"
     d="M 34.589022,132.02458 C 24.025035,130.66588 14.316404,124.52327 8.5142423,115.52716 7.1636188,113.43306 5.4530085,109.79787 4.6357647,107.28507 2.6452755,101.16489 2.2714958,95.11454 3.4932923,88.791947 3.9338353,86.512211 5.0155776,83.074109 5.9200412,81.07901 l 0.586515,-1.293756 1.455228,1.953492 c 6.2504728,8.390609 16.2265958,14.07137 26.8157338,15.269835 1.088564,0.123203 2.001106,0.238823 2.02787,0.256935 0.02676,0.01811 -0.240304,0.661343 -0.593487,1.429404 -1.407711,3.06132 -2.650782,7.36789 -3.150709,10.91552 -0.32473,2.30438 -0.32473,8.06291 0,10.36728 0.497901,3.53326 1.743045,7.85414 3.136904,10.88565 l 0.628347,1.3666 -0.506098,-0.0239 c -0.278354,-0.0132 -1.05745,-0.0948 -1.731323,-0.18149 z"
     id="path7"
     transform="scale(0.26458333)" />
  <path
     style="fill:#aecbeb;fill-opacity:1;fill-rule:nonzero;stroke-width:4.27456"
     d="m 69.83778,151.15425 c -8.166106,-0.68045 -14.822069,-3.25046 -20.721576,-8.00104 -2.214062,-1.78287 -4.68313,-4.32381 -6.23399,-6.41546 -1.364591,-1.84042 -1.454069,-1.71821 1.502521,-2.05224 5.231783,-0.59109 11.441254,-2.87319 16.114507,-5.92239 3.76615,-2.45734 7.664265,-6.13062 10.092522,-9.51043 0.673873,-0.93794 1.267636,-1.70393 1.319472,-1.70221 0.05184,0.002 0.686552,0.81167 1.410478,1.79987 6.051337,8.26046 16.193936,14.21745 26.109943,15.33502 2.963423,0.33398 2.873463,0.21159 1.508603,2.05238 -6.435986,8.68021 -16.761216,14.01124 -27.898048,14.40407 -1.29591,0.0457 -2.737904,0.0513 -3.204432,0.0124 z"
     id="path8"
     transform="scale(0.26458333)" />
  <path
     style="fill:#aecbeb;fill-opacity:1;fill-rule:nonzero;stroke-width:6.04514"
     d="m 107.59647,130.9543 c 0.83791,-1.64241 2.04574,-5.29998 2.66291,-8.06385 0.75659,-3.38825 0.95966,-10.28715 0.40803,-13.86183 -0.50027,-3.24183 -1.49293,-6.74831 -2.71246,-9.581526 -0.5013,-1.164606 -0.88465,-2.134545 -0.8519,-2.155421 0.0328,-0.02088 1.22732,-0.185792 2.65459,-0.366482 10.33985,-1.309012 20.65325,-7.387524 26.42991,-15.577274 l 1.09788,-1.556486 0.73475,1.624889 c 0.93173,2.060486 1.96853,5.628119 2.48437,8.548701 0.53822,3.0473 0.52951,8.83089 -0.0181,11.986879 -2.6114,15.05106 -14.03851,26.7291 -28.99104,29.62765 -1.44046,0.27923 -3.03705,0.50769 -3.54798,0.50769 h -0.92898 z"
     id="path9"
     transform="scale(0.26458333)" />
  <path
     style="fill:#83b0e1;fill-opacity:1;fill-rule:nonzero;stroke-width:6.04514"
     d="M 38.277666,53.065419 C 36.311561,48.342621 35.43115,43.153415 35.657799,37.62372 c 0.21153,-5.160826 1.149078,-9.072343 3.305028,-13.788799 1.098516,-2.403166 0.836564,-2.29969 4.628957,-1.828529 9.646454,1.198461 18.726406,6.412419 24.579699,14.114337 l 1.316837,1.732729 -0.889306,0.06811 c -0.48912,0.03746 -2.028911,0.260768 -3.421758,0.496243 -9.81105,1.658655 -19.327935,7.58112 -24.953092,15.528592 -0.424196,0.599322 -0.850039,1.092238 -0.946319,1.095367 -0.09628,0.0031 -0.54636,-0.886226 -1.000179,-1.976347 z"
     id="path10"
     transform="scale(0.26458333)" />
  <path
     style="fill:#83b0e1;fill-opacity:1;fill-rule:nonzero;stroke-width:6.04514"
     d="m 103.164,53.39115 c -1.84352,-2.538858 -6.486555,-6.969448 -9.221916,-8.799955 -2.964405,-1.983784 -7.749887,-4.26569 -10.767522,-5.134377 -2.654246,-0.76408 -6.38533,-1.470074 -7.769139,-1.470074 -0.493949,0 -0.898089,-0.09598 -0.898089,-0.213284 0,-0.311791 2.513811,-3.42611 4.097691,-5.076561 1.394366,-1.452972 4.758904,-4.168514 6.72268,-5.425923 4.494711,-2.87797 10.622191,-4.904646 16.416185,-5.429684 l 2.04371,-0.185196 0.79068,1.567626 c 1.16005,2.299964 2.3688,5.892601 3.02183,8.981465 0.81136,3.837764 0.81136,10.124514 0,13.962278 -0.58335,2.759257 -1.87283,6.742696 -2.66627,8.236561 l -0.43697,0.822726 z"
     id="path11"
     transform="scale(0.26458333)" />
  <path
     style="fill:#83b0e1;fill-opacity:1;fill-rule:nonzero;stroke-width:6.04514"
     d="m 108.11225,91.992712 c 2.0067,-4.802601 2.91668,-9.498744 2.9141,-15.038861 -0.003,-5.504224 -1.01559,-10.58396 -3.05622,-15.325094 l -0.89626,-2.082345 1.51052,0.178198 c 5.86312,0.691676 11.56444,2.803912 16.63199,6.161855 2.46236,1.631645 7.44775,6.56011 9.22524,9.119889 l 1.3646,1.965175 -1.32135,1.911413 c -2.55546,3.696589 -6.54998,7.509671 -10.54967,10.070476 -4.1467,2.654922 -10.34485,4.767518 -15.7431,5.365922 l -1.1031,0.12228 z"
     id="path12"
     transform="scale(0.26458333)" />
  <path
     style="fill:#83b0e1;fill-opacity:1;fill-rule:nonzero;stroke-width:6.04514"
     d="m 101.83113,132.17514 c -5.963718,-0.49804 -12.439136,-2.75588 -17.460571,-6.08813 -3.441947,-2.28409 -7.607644,-6.34905 -9.388074,-9.16105 l -0.467376,-0.73817 2.461918,-0.32662 c 10.446873,-1.38596 19.868462,-6.89183 26.275193,-15.35494 l 1.33999,-1.770078 0.57447,1.280918 c 3.55379,7.92393 4.03252,18.13301 1.23589,26.35545 -1.13395,3.33394 -2.48381,5.98626 -3.02129,5.93648 -0.26612,-0.0246 -0.96369,-0.0849 -1.55015,-0.13386 z"
     id="path13"
     transform="scale(0.26458333)" />
  <path
     style="fill:#83b0e1;fill-opacity:1;fill-rule:nonzero;stroke-width:6.04514"
     d="m 38.844574,129.88721 c -2.167633,-5.01462 -2.956438,-8.34357 -3.179771,-13.41938 -0.244866,-5.5652 0.628644,-10.66314 2.674035,-15.60607 l 0.891915,-2.155417 1.041883,1.429107 c 6.313143,8.65948 16.832655,14.74596 27.365098,15.83315 l 1.794043,0.18519 -0.861036,1.21438 c -1.478265,2.08489 -5.255302,5.88341 -7.599665,7.64289 -5.331447,4.00131 -12.281004,6.60667 -19.156986,7.18187 l -1.903988,0.15928 z"
     id="path14"
     transform="scale(0.26458333)" />
  <path
     style="fill:#83b0e1;fill-opacity:1;fill-rule:nonzero;stroke-width:6.04514"
     d="M 34.654574,94.175295 C 28.370287,93.434276 21.473388,90.541269 16.527566,86.571649 14.825525,85.205556 11.488944,81.753531 10.148716,79.972093 7.8600424,76.929979 7.8937984,77.204416 9.5177598,74.842417 c 0.7764682,-1.129346 2.5534452,-3.196212 3.9488382,-4.593034 5.88222,-5.888246 13.205437,-9.425884 21.828011,-10.544493 1.337829,-0.173557 1.424658,-0.151592 1.226503,0.310274 -0.117287,0.273379 -0.629311,1.576677 -1.137835,2.896216 -3.736132,9.694713 -3.53418,19.949237 0.58462,29.685207 0.394382,0.932237 0.680077,1.718323 0.634877,1.746857 -0.0452,0.02854 -0.921892,-0.04713 -1.9482,-0.168149 z"
     id="path15"
     transform="scale(0.26458333)" />
</svg>
